<svg width="23" height="20" viewBox="0 0 23 20" fill="none" xmlns="http://www.w3.org/2000/svg">
<path d="M0.851724 8.71413C0.648248 8.5542 0.338546 8.58097 0.17397 8.7584C0.115995 8.82087 0.077469 8.90049 0.0580191 8.98045C-0.145457 10.1353 0.0965448 11.8761 2.25511 13.9541C4.53935 16.1568 7.57839 15.9883 9.0592 15.4996C9.4366 15.3754 9.84318 15.0733 9.56265 14.807C8.8561 14.1409 7.30759 12.8796 6.22326 12.2934C4.60705 11.4141 3.66822 10.7126 2.62278 10.0018C2.02283 9.60234 1.33573 9.08719 0.851724 8.71413ZM9.53348 14.0698C9.73695 14.2383 10.0564 14.2297 10.2498 14.043C10.3077 13.9809 10.3466 13.9099 10.3661 13.8388C10.6466 12.6932 10.3758 10.9611 8.27522 8.77625C6.34931 6.77812 3.95847 6.64462 2.21621 6.98233C1.47113 7.12441 0.445147 7.54175 0.967675 8.04797C1.5968 8.66093 3.25191 9.93078 4.21992 10.4995C5.8264 11.4584 6.75588 11.9293 7.79122 12.6932C8.38182 13.1195 9.0592 13.67 9.53348 14.0698ZM17.8573 2.16857C18.1285 2.1061 18.2833 1.85763 18.2156 1.6088C18.1962 1.53776 18.1576 1.46672 18.0993 1.4046C17.2281 0.569929 15.5828 -0.28293 12.5048 0.0901312C9.2335 0.498542 7.57839 2.86115 7.11384 4.25558C6.99789 4.6108 7.01696 5.09952 7.41381 5.04598C8.41099 4.91282 10.4143 4.5044 11.5757 4.04245C13.2985 3.35845 14.4696 3.07428 15.6991 2.71014C16.3959 2.51486 17.2573 2.31065 17.8573 2.16857ZM8.07212 5.47224C7.79122 5.52578 7.61729 5.78318 7.67526 6.04092C7.69471 6.11197 7.72352 6.18301 7.78187 6.23621C8.59465 7.12441 10.2595 7.95908 13.3857 7.68383C16.2605 7.43536 17.7993 5.72998 18.5448 4.22023C18.8642 3.5805 19.1155 2.55913 18.3802 2.64802C17.4701 2.75476 15.3991 3.23421 14.3342 3.6162C12.5534 4.24666 11.5854 4.66399 10.3175 4.98386C9.5821 5.17914 8.69152 5.35692 8.07212 5.47224ZM20.1318 9.93971C20.2964 9.7355 20.2384 9.45133 20.0158 9.30032C19.9481 9.25605 19.8707 9.22928 19.7836 9.22035C18.535 9.10504 16.6862 9.45133 14.6054 11.6008C12.3986 13.8831 12.776 16.6809 13.3954 18.0311C13.5503 18.3773 13.9086 18.7326 14.1697 18.4573C14.8377 17.7555 16.0765 16.2279 16.6379 15.1801C17.4701 13.6168 18.167 12.6932 18.8545 11.6804C19.2607 11.0942 19.7641 10.4106 20.1318 9.93971ZM14.9828 18.3773C14.8085 18.5816 14.8474 18.8836 15.07 19.0435C15.1377 19.0878 15.2054 19.1235 15.2925 19.132C16.5313 19.3098 18.3705 18.9457 20.5675 16.8497C22.5806 14.9223 22.5612 12.6932 22.0869 11.0942C21.8838 10.4106 21.371 9.48668 20.8675 10.0018C20.2481 10.6326 19.0093 12.2491 18.4576 13.1905C17.5378 14.7535 17.0927 15.6506 16.3477 16.663C15.9216 17.2403 15.3699 17.9065 14.9828 18.3773Z" fill="#995000"/>
</svg>
