<svg width="249" height="46" viewBox="0 0 249 46" fill="none" xmlns="http://www.w3.org/2000/svg">
<path d="M13.552 28.04L17.5 37H23.744V35.152H23.52C23.296 35.152 23.1 35.1333 22.932 35.096C22.764 35.04 22.6147 34.956 22.484 34.844C22.3533 34.732 22.232 34.5733 22.12 34.368L18.704 27.564L13.552 28.04ZM11.732 34.872V19.22H13.608C14.28 19.22 14.84 19.3693 15.288 19.668C15.736 19.948 16.072 20.3587 16.296 20.9C16.5387 21.4413 16.66 22.0853 16.66 22.832C16.66 23.6533 16.5387 24.3627 16.296 24.96C16.072 25.5387 15.7267 25.9867 15.26 26.304C14.812 26.6027 14.2147 26.752 13.468 26.752H11.144V28.852H13.972C14.1213 28.852 14.2707 28.852 14.42 28.852C14.5693 28.8333 14.7187 28.8147 14.868 28.796C15.0173 28.7773 15.148 28.7587 15.26 28.74C16.772 28.6467 18.0413 28.348 19.068 27.844C20.1133 27.34 20.8973 26.6587 21.42 25.8C21.9613 24.9413 22.232 23.952 22.232 22.832C22.232 21.6747 21.924 20.6667 21.308 19.808C20.7107 18.9493 19.8427 18.2867 18.704 17.82C17.5653 17.3533 16.1747 17.12 14.532 17.12H4.368V18.968H4.648C5.13333 18.968 5.53467 19.0333 5.852 19.164C6.16933 19.2947 6.328 19.5653 6.328 19.976V34.144C6.328 34.5547 6.16933 34.8253 5.852 34.956C5.53467 35.0867 5.13333 35.152 4.648 35.152H4.368V37H13.496V35.152H13.216C13.048 35.152 12.8707 35.152 12.684 35.152C12.516 35.1333 12.3573 35.1147 12.208 35.096C12.0587 35.0587 11.9373 35.0307 11.844 35.012C11.7693 34.9747 11.732 34.928 11.732 34.872ZM35.2645 37.28C33.7711 37.28 32.3991 37.0373 31.1485 36.552C29.8978 36.0667 28.8058 35.376 27.8725 34.48C26.9578 33.584 26.2391 32.5107 25.7165 31.26C25.2125 29.9907 24.9605 28.5907 24.9605 27.06C24.9605 25.5293 25.2125 24.1387 25.7165 22.888C26.2391 21.6373 26.9578 20.564 27.8725 19.668C28.8058 18.7533 29.8978 18.0533 31.1485 17.568C32.3991 17.0827 33.7711 16.84 35.2645 16.84C36.7578 16.84 38.1298 17.0827 39.3805 17.568C40.6311 18.0533 41.7138 18.7533 42.6285 19.668C43.5618 20.564 44.2805 21.6373 44.7845 22.888C45.2885 24.1387 45.5405 25.5293 45.5405 27.06C45.5405 28.5907 45.2885 29.9907 44.7845 31.26C44.2805 32.5107 43.5618 33.584 42.6285 34.48C41.7138 35.376 40.6311 36.0667 39.3805 36.552C38.1298 37.0373 36.7578 37.28 35.2645 37.28ZM35.2645 34.984C35.9551 34.984 36.5805 34.816 37.1405 34.48C37.7191 34.144 38.2138 33.64 38.6245 32.968C39.0351 32.2773 39.3431 31.4373 39.5485 30.448C39.7725 29.4587 39.8845 28.3293 39.8845 27.06C39.8845 25.7907 39.7725 24.6613 39.5485 23.672C39.3431 22.6827 39.0351 21.852 38.6245 21.18C38.2138 20.4893 37.7191 19.976 37.1405 19.64C36.5805 19.304 35.9551 19.136 35.2645 19.136C34.5738 19.136 33.9391 19.304 33.3605 19.64C32.8005 19.976 32.3151 20.4893 31.9045 21.18C31.4938 21.852 31.1765 22.6827 30.9525 23.672C30.7285 24.6613 30.6165 25.7907 30.6165 27.06C30.6165 28.3293 30.7285 29.4587 30.9525 30.448C31.1765 31.4373 31.4938 32.2773 31.9045 32.968C32.3151 33.64 32.8005 34.144 33.3605 34.48C33.9391 34.816 34.5738 34.984 35.2645 34.984ZM57.8791 19.164C57.1697 19.164 56.5164 19.3507 55.9191 19.724C55.3404 20.0973 54.8457 20.6293 54.4351 21.32C54.0244 21.992 53.7071 22.8227 53.4831 23.812C53.2777 24.7827 53.1751 25.8653 53.1751 27.06C53.1751 28.3107 53.2871 29.4213 53.5111 30.392C53.7351 31.3627 54.0524 32.1933 54.4631 32.884C54.8924 33.556 55.4244 34.0787 56.0591 34.452C56.6937 34.8067 57.4217 34.984 58.2431 34.984C59.1204 34.984 59.9044 34.76 60.5951 34.312C61.2857 33.8453 61.8551 33.2107 62.3031 32.408C62.7697 31.5867 63.1151 30.6533 63.3391 29.608L65.3551 30.42C65.0751 31.764 64.5991 32.9587 63.9271 34.004C63.2737 35.0307 62.4151 35.8333 61.3511 36.412C60.2871 36.9907 59.0177 37.28 57.5431 37.28C56.0684 37.28 54.7244 37.0373 53.5111 36.552C52.2977 36.0667 51.2431 35.376 50.3471 34.48C49.4511 33.5653 48.7511 32.4827 48.2471 31.232C47.7617 29.9813 47.5191 28.5907 47.5191 27.06C47.5191 25.5293 47.7711 24.1387 48.2751 22.888C48.7977 21.6373 49.4977 20.564 50.3751 19.668C51.2711 18.7533 52.2977 18.0533 53.4551 17.568C54.6124 17.0827 55.8444 16.84 57.1511 16.84C58.4764 16.84 59.5684 17.064 60.4271 17.512C61.3044 17.96 62.0044 18.5853 62.5271 19.388C63.0497 20.172 63.4697 21.0773 63.7871 22.104L62.3031 21.824L62.8351 17.12H65.0751V23.392H62.4711C62.2097 22.5333 61.8737 21.7867 61.4631 21.152C61.0524 20.5173 60.5577 20.032 59.9791 19.696C59.4004 19.3413 58.7004 19.164 57.8791 19.164ZM67.0946 37V35.152H67.3746C67.8599 35.152 68.2612 35.0867 68.5786 34.956C68.8959 34.8253 69.0546 34.5547 69.0546 34.144V19.976C69.0546 19.5653 68.8959 19.2947 68.5786 19.164C68.2612 19.0333 67.8599 18.968 67.3746 18.968H67.0946V17.12H76.7266V18.968H76.4466C76.1292 18.968 75.8119 18.9773 75.4946 18.996C75.1959 19.0147 74.9439 19.0427 74.7386 19.08C74.5519 19.1173 74.4586 19.1733 74.4586 19.248V34.872C74.4586 34.928 74.5426 34.984 74.7106 35.04C74.8786 35.0773 75.0839 35.1053 75.3266 35.124C75.5692 35.1427 75.8119 35.152 76.0546 35.152H76.2786V37H67.0946ZM78.2386 37V35.152H78.4906C78.7332 35.152 78.9759 35.1427 79.2186 35.124C79.4612 35.1053 79.6572 35.0773 79.8066 35.04C79.9746 34.984 80.0586 34.928 80.0586 34.872L75.2146 27.564V26.836L81.8786 19.22C81.8786 19.1453 81.7759 19.0893 81.5706 19.052C81.3652 19.0147 81.1039 18.996 80.7866 18.996C80.4692 18.9773 80.1706 18.968 79.8906 18.968H79.5826V17.12H86.7786V18.968H86.2466C85.9292 18.968 85.6492 18.996 85.4066 19.052C85.1826 19.108 84.9679 19.2013 84.7626 19.332C84.5572 19.4627 84.3426 19.6587 84.1186 19.92L77.9306 27.004L79.2186 24.288L85.7706 34.228C85.9386 34.4707 86.0972 34.6573 86.2466 34.788C86.4146 34.9187 86.6012 35.012 86.8066 35.068C87.0119 35.124 87.2546 35.152 87.5346 35.152H87.8146V37H78.2386ZM105.262 30.644V37H89.1063V35.152H89.3863C89.8716 35.152 90.2729 35.0867 90.5903 34.956C90.9076 34.8253 91.0663 34.5547 91.0663 34.144V19.976C91.0663 19.5653 90.9076 19.2947 90.5903 19.164C90.2729 19.0333 89.8716 18.968 89.3863 18.968H89.1063V17.12H104.506V22.776H102.182L101.958 20.48C101.94 20.144 101.809 19.892 101.566 19.724C101.342 19.5373 101.025 19.416 100.614 19.36C100.204 19.304 99.6903 19.276 99.0743 19.276H96.4703V34.844H99.3543C99.9329 34.844 100.418 34.8347 100.81 34.816C101.202 34.7787 101.52 34.7133 101.762 34.62C102.024 34.5267 102.22 34.4053 102.35 34.256C102.5 34.088 102.584 33.8827 102.602 33.64L102.91 30.644H105.262ZM95.6863 25.884C96.4143 25.8467 97.1236 25.8093 97.8143 25.772C98.5236 25.7347 99.2236 25.6973 99.9143 25.66C100.624 25.604 101.324 25.5667 102.014 25.548V28.124C101.324 28.068 100.624 28.0213 99.9143 27.984C99.2236 27.9467 98.5236 27.9093 97.8143 27.872C97.1236 27.816 96.4143 27.7787 95.6863 27.76V25.884ZM113.43 34.144V19.248H112.562C111.89 19.248 111.33 19.276 110.882 19.332C110.453 19.388 110.126 19.5093 109.902 19.696C109.697 19.864 109.585 20.116 109.566 20.452L109.286 23.532H106.906V17.12H125.386V23.532H122.978L122.726 20.452C122.708 20.116 122.586 19.864 122.362 19.696C122.157 19.5093 121.83 19.388 121.382 19.332C120.953 19.276 120.393 19.248 119.702 19.248H118.834V34.144C118.834 34.5547 118.984 34.8253 119.282 34.956C119.6 35.0867 120.001 35.152 120.486 35.152H120.906V37H111.358V35.152H111.778C112.264 35.152 112.656 35.0867 112.954 34.956C113.272 34.8253 113.43 34.5547 113.43 34.144Z" fill="#2D2C2A"/>
<path d="M137.531 19.164C136.822 19.164 136.169 19.3507 135.571 19.724C134.993 20.0973 134.498 20.6293 134.087 21.32C133.677 21.992 133.359 22.8227 133.135 23.812C132.93 24.7827 132.827 25.8653 132.827 27.06C132.827 28.3107 132.939 29.4213 133.163 30.392C133.387 31.3627 133.705 32.1933 134.115 32.884C134.545 33.556 135.077 34.0787 135.711 34.452C136.346 34.8067 137.074 34.984 137.895 34.984C138.773 34.984 139.557 34.76 140.247 34.312C140.938 33.8453 141.507 33.2107 141.955 32.408C142.422 31.5867 142.767 30.6533 142.991 29.608L145.007 30.42C144.727 31.764 144.251 32.9587 143.579 34.004C142.926 35.0307 142.067 35.8333 141.003 36.412C139.939 36.9907 138.67 37.28 137.195 37.28C135.721 37.28 134.377 37.0373 133.163 36.552C131.95 36.0667 130.895 35.376 129.999 34.48C129.103 33.5653 128.403 32.4827 127.899 31.232C127.414 29.9813 127.171 28.5907 127.171 27.06C127.171 25.5293 127.423 24.1387 127.927 22.888C128.45 21.6373 129.15 20.564 130.027 19.668C130.923 18.7533 131.95 18.0533 133.107 17.568C134.265 17.0827 135.497 16.84 136.803 16.84C138.129 16.84 139.221 17.064 140.079 17.512C140.957 17.96 141.657 18.5853 142.179 19.388C142.702 20.172 143.122 21.0773 143.439 22.104L141.955 21.824L142.487 17.12H144.727V23.392H142.123C141.862 22.5333 141.526 21.7867 141.115 21.152C140.705 20.5173 140.21 20.032 139.631 19.696C139.053 19.3413 138.353 19.164 137.531 19.164ZM182.138 19.276V34.144C182.138 34.3867 182.194 34.5827 182.306 34.732C182.437 34.8627 182.596 34.956 182.782 35.012C182.988 35.068 183.202 35.1053 183.426 35.124C183.669 35.1427 183.902 35.152 184.126 35.152H184.602V37H174.774V35.152H175.054C175.54 35.152 175.941 35.0867 176.258 34.956C176.576 34.8253 176.734 34.5547 176.734 34.144V19.976C176.734 19.5653 176.576 19.2947 176.258 19.164C175.941 19.0333 175.54 18.968 175.054 18.968H174.774V17.12H190.314V22.776H187.99L187.766 20.48C187.729 20.144 187.598 19.892 187.374 19.724C187.15 19.5373 186.833 19.416 186.422 19.36C186.012 19.304 185.508 19.276 184.91 19.276H182.138ZM181.354 26.08C182.101 26.024 182.838 25.9867 183.566 25.968C184.294 25.9307 185.022 25.8933 185.75 25.856C186.478 25.8 187.197 25.7533 187.906 25.716V28.32C187.197 28.264 186.478 28.2173 185.75 28.18C185.022 28.1427 184.294 28.1053 183.566 28.068C182.838 28.012 182.101 27.9747 181.354 27.956V26.08ZM199.419 19.276V34.144C199.419 34.3867 199.476 34.5827 199.588 34.732C199.718 34.8627 199.877 34.956 200.064 35.012C200.269 35.068 200.484 35.1053 200.708 35.124C200.95 35.1427 201.184 35.152 201.408 35.152H201.884V37H192.056V35.152H192.336C192.821 35.152 193.222 35.0867 193.54 34.956C193.857 34.8253 194.016 34.5547 194.016 34.144V19.976C194.016 19.5653 193.857 19.2947 193.54 19.164C193.222 19.0333 192.821 18.968 192.336 18.968H192.056V17.12H207.596V22.776H205.272L205.048 20.48C205.01 20.144 204.88 19.892 204.656 19.724C204.432 19.5373 204.114 19.416 203.704 19.36C203.293 19.304 202.789 19.276 202.192 19.276H199.419ZM198.636 26.08C199.382 26.024 200.12 25.9867 200.848 25.968C201.576 25.9307 202.304 25.8933 203.032 25.856C203.76 25.8 204.478 25.7533 205.188 25.716V28.32C204.478 28.264 203.76 28.2173 203.032 28.18C202.304 28.1427 201.576 28.1053 200.848 28.068C200.12 28.012 199.382 27.9747 198.636 27.956V26.08ZM225.493 30.644V37H209.337V35.152H209.617C210.102 35.152 210.503 35.0867 210.821 34.956C211.138 34.8253 211.297 34.5547 211.297 34.144V19.976C211.297 19.5653 211.138 19.2947 210.821 19.164C210.503 19.0333 210.102 18.968 209.617 18.968H209.337V17.12H224.737V22.776H222.413L222.189 20.48C222.17 20.144 222.039 19.892 221.797 19.724C221.573 19.5373 221.255 19.416 220.845 19.36C220.434 19.304 219.921 19.276 219.305 19.276H216.701V34.844H219.585C220.163 34.844 220.649 34.8347 221.041 34.816C221.433 34.7787 221.75 34.7133 221.993 34.62C222.254 34.5267 222.45 34.4053 222.581 34.256C222.73 34.088 222.814 33.8827 222.833 33.64L223.141 30.644H225.493ZM215.917 25.884C216.645 25.8467 217.354 25.8093 218.045 25.772C218.754 25.7347 219.454 25.6973 220.145 25.66C220.854 25.604 221.554 25.5667 222.245 25.548V28.124C221.554 28.068 220.854 28.0213 220.145 27.984C219.454 27.9467 218.754 27.9093 218.045 27.872C217.354 27.816 216.645 27.7787 215.917 27.76V25.884ZM243.594 30.644V37H227.438V35.152H227.718C228.204 35.152 228.605 35.0867 228.922 34.956C229.24 34.8253 229.398 34.5547 229.398 34.144V19.976C229.398 19.5653 229.24 19.2947 228.922 19.164C228.605 19.0333 228.204 18.968 227.718 18.968H227.438V17.12H242.838V22.776H240.514L240.29 20.48C240.272 20.144 240.141 19.892 239.898 19.724C239.674 19.5373 239.357 19.416 238.946 19.36C238.536 19.304 238.022 19.276 237.406 19.276H234.802V34.844H237.686C238.265 34.844 238.75 34.8347 239.142 34.816C239.534 34.7787 239.852 34.7133 240.094 34.62C240.356 34.5267 240.552 34.4053 240.682 34.256C240.832 34.088 240.916 33.8827 240.934 33.64L241.242 30.644H243.594ZM234.018 25.884C234.746 25.8467 235.456 25.8093 236.146 25.772C236.856 25.7347 237.556 25.6973 238.246 25.66C238.956 25.604 239.656 25.5667 240.346 25.548V28.124C239.656 28.068 238.956 28.0213 238.246 27.984C237.556 27.9467 236.856 27.9093 236.146 27.872C235.456 27.816 234.746 27.7787 234.018 27.76V25.884Z" fill="#995000"/>
<path d="M169.384 22.3418C169.384 22.3418 173.367 20.9895 174.677 23.6647C174.677 23.6647 175.513 25.8845 174.495 27.2423C173.482 28.5937 171.184 30.6994 167 31L168.237 28.9855C168.237 28.9855 171.403 28.1744 172.421 26.8514C172.421 26.8514 173.622 25.3484 172.348 24.266C171.831 23.8265 171.077 23.3238 169.384 24.3961V22.3418Z" fill="#FED7AA"/>
<path d="M168.88 17H149.12C148.754 25.5283 149.217 28.6977 150.584 31.7035C153.145 37.3363 159 36.996 159 36.996C159 36.996 164.855 37.3363 167.416 31.7035C168.783 28.6977 169.245 25.5283 168.88 17Z" fill="#DC9750"/>
<path d="M144 34.6516C144 34.6516 158.887 31.7464 174.375 34.6516C174.375 34.6516 156.769 38.5431 144 34.6516Z" fill="#DC9750"/>
<path d="M164.216 17H149.12C148.746 25.3488 149.246 28.4347 150.617 31.394C153.651 37.9435 158.655 35.7588 159.773 35.2029C163.249 33.4766 166.553 28.3755 164.216 17Z" fill="#FFF6EA"/>
<path d="M144 34.6515C144 34.6515 152.433 36.1503 159.089 35.7972V39H153.867L153.825 38.6148C153.825 38.6148 146.477 38.6997 144 34.6515Z" fill="#FED7AA"/>
<path d="M174.375 34.6515C174.375 34.6515 165.744 36.1498 159.089 35.7972V39H164.311L164.36 38.5479C164.36 38.5479 171.262 38.4587 174.375 34.6515Z" fill="#FED7AA"/>
<path d="M169 17.4992C169 18.8806 164.523 20 159 20C153.477 20 149 18.8806 149 17.4992C149 16.1194 153.477 15 159 15C164.523 15 169 16.1194 169 17.4992Z" fill="#FED7AA"/>
<path d="M155.891 15.001C156.707 14.9475 152.644 16.9888 153.501 18.4985C153.878 19.1625 151.257 18.9758 151.257 18.9758C151.257 18.9758 149.487 18.8459 149 17.3979C149 17.3979 149 15.4531 155.891 15.001Z" fill="#DC9750"/>
<path d="M152 19C152 19 159.401 16.8468 167 19.0581C167 19.0581 159.961 21.3506 152 19Z" fill="#995000"/>
<path d="M157.008 15C157.008 15 158.913 11.3438 157.917 9.50028C157.357 8.46411 156.389 8.0001 157.534 4C157.534 4 157.414 6.68552 158.375 8.50054C159.013 9.70581 159.838 11.8755 157.008 15Z" fill="#DC9750"/>
<path d="M159.221 15.1107C159.221 15.1107 163.306 10.0881 161.17 7.55508C159.969 6.13187 157.896 5.4948 160.351 0C160.351 0 160.093 3.68913 162.152 6.18138C163.519 7.83798 165.289 10.8182 159.221 15.1107Z" fill="#DC9750"/>
<path d="M157.008 15C157.008 15 158.913 11.3438 157.917 9.50028C157.357 8.46411 156.389 8.0001 157.534 4C157.534 4 157.414 6.68552 158.375 8.50054C159.012 9.70581 159.838 11.8755 157.008 15Z" fill="#FFF6EA"/>
<path d="M159.069 15.1107C159.069 15.1107 163.154 10.0881 161.017 7.55508C159.817 6.13187 157.743 5.4948 160.199 0C160.199 0 159.941 3.68913 161.999 6.18138C163.366 7.83798 165.137 10.8182 159.069 15.1107Z" fill="#FFF6EA"/>
</svg>
